<svg width="115" height="24" viewBox="0 0 115 24" fill="none" xmlns="http://www.w3.org/2000/svg">
    <path fill-rule="evenodd" clip-rule="evenodd" d="M0 0L11.399 15.6603L22.7979 0V23.8542H18.1136V14.1934L11.399 23.4765L4.6843 14.1934V23.8542H0V0ZM25.1183 23.8542V0.435877H29.8025V23.8542H25.1183ZM36.8072 0.435877H32.1229V23.8542H36.8072V14.4839H43.8119V23.8542H48.4962V0.435877H43.8119V9.80619H36.8072V0.435877ZM62.0414 0.319841C65.29 0.319841 68.0745 1.48206 70.3949 3.80656C72.7152 6.13106 73.8755 8.9203 73.8755 12.1745C73.8755 15.4287 72.7153 18.218 70.3949 20.5279C68.0744 22.8377 65.29 24 62.0414 24C58.7929 24 56.0084 22.8378 53.7026 20.5279C51.3967 18.2179 50.2365 15.4287 50.2365 12.1745C50.2365 8.9203 51.3967 6.13099 53.7026 3.80656C56.0085 1.48213 58.7929 0.319841 62.0414 0.319841ZM57.0382 7.13365C58.4158 5.73892 60.0835 5.04159 62.0414 5.04159C63.9848 5.04159 65.6524 5.739 67.0447 7.13365C68.437 8.52831 69.1331 10.1989 69.1331 12.1456C69.1331 14.1068 68.437 15.7775 67.0447 17.1576C65.6525 18.5378 63.9848 19.2351 62.0414 19.2351C60.0837 19.2351 58.4159 18.5377 57.0382 17.1576C55.6604 15.7775 54.9643 14.1069 54.9643 12.1456C54.9643 10.1989 55.6605 8.52838 57.0382 7.13365ZM75.5868 0L86.9857 15.6603L98.3847 0V23.8542H93.7004V14.1934L86.9857 23.4765L80.2711 14.1934V23.8542H75.5868V0ZM114.729 0.435877H100.705V0.436026V23.8544H105.389H114.729V19.1619H105.389V14.4841H112.394V9.80619H105.389V5.11374H114.729V0.435877Z" fill="#181C27"/>
</svg>