<svg width="86" height="18" viewBox="0 0 86 18" fill="none" xmlns="http://www.w3.org/2000/svg">
<g opacity="0.32">
<path fill-rule="evenodd" clip-rule="evenodd" d="M0 0L8.52444 11.7452L17.0489 0V17.8907H13.5458V10.645L8.52444 17.6074L3.50304 10.645V17.8907H0V0ZM18.7841 17.8907V0.326908H22.2871V17.8907H18.7841ZM27.5254 0.326908H24.0224V17.8907H27.5254V10.8629H32.7637V17.8907H36.2667V0.326908H32.7637V7.35464H27.5254V0.326908ZM46.3962 0.239881C48.8256 0.239881 50.9079 1.11154 52.6431 2.85492C54.3784 4.5983 55.246 6.69023 55.246 9.13087C55.246 11.5715 54.3784 13.6635 52.6431 15.3959C50.9078 17.1283 48.8256 18 46.3962 18C43.9669 18 41.8846 17.1283 40.1602 15.3959C38.4358 13.6635 37.5681 11.5715 37.5681 9.13087C37.5681 6.69023 38.4358 4.59824 40.1602 2.85492C41.8846 1.1116 43.9669 0.239881 46.3962 0.239881ZM42.6546 5.35024C43.6849 4.30419 44.932 3.78119 46.3962 3.78119C47.8495 3.78119 49.0966 4.30425 50.1378 5.35024C51.179 6.39623 51.6996 7.64919 51.6996 9.10923C51.6996 10.5801 51.1789 11.8331 50.1378 12.8682C49.0966 13.9033 47.8495 14.4263 46.3962 14.4263C44.9322 14.4263 43.6849 13.9033 42.6546 12.8682C41.6243 11.8332 41.1037 10.5802 41.1037 9.10923C41.1037 7.64919 41.6244 6.39629 42.6546 5.35024ZM56.5258 0L65.0502 11.7452L73.5747 0V17.8907H70.0716V10.645L65.0502 17.6074L60.0288 10.645V17.8907H56.5258V0ZM85.7973 0.326908H75.3099V0.327019V17.8908H78.8129H85.7973V14.3714H78.8129V10.863H84.0512V7.35464H78.8129V3.83531H85.7973V0.326908Z" fill="white"/>
</g>
</svg>