<svg width="106" height="26" viewBox="0 0 106 26" fill="none" xmlns="http://www.w3.org/2000/svg">
<path d="M23.67 18.5199C22.7083 20.3936 21.2917 21.9959 19.55 23.1799C17.6031 24.4398 15.3177 25.0748 13 24.9999C11.3564 25.0182 9.72529 24.7123 8.19995 24.0999C6.785 23.5342 5.50169 22.6832 4.42995 21.5999C3.33946 20.5164 2.47893 19.2239 1.89995 17.7999C1.28575 16.2751 0.97986 14.6437 0.999953 12.9999C0.98167 11.3466 1.28743 9.70569 1.89995 8.16991C3.02567 5.30495 5.2886 3.03478 8.14995 1.89991C9.69086 1.28099 11.3396 0.975046 13 0.999911C15.3233 0.921998 17.6162 1.54576 19.58 2.78991C21.3064 3.92827 22.6648 5.54377 23.49 7.43991L17.97 9.73991C17.5286 8.78438 16.8377 7.96561 15.97 7.36991C15.0538 6.80031 13.988 6.51818 12.91 6.55991C12.121 6.54464 11.3376 6.69452 10.61 6.99991C9.90889 7.30834 9.27652 7.75373 8.74995 8.30991C8.19662 8.88453 7.76469 9.56473 7.47995 10.3099C7.15767 11.1699 6.99501 12.0815 6.99995 12.9999C6.99104 13.9104 7.14688 14.8149 7.45995 15.6699C7.74469 16.4151 8.17662 17.0953 8.72995 17.6699C9.26052 18.2355 9.90001 18.6879 10.61 18.9999C11.3206 19.3054 12.0864 19.4619 12.86 19.4599C13.9864 19.4918 15.0978 19.1965 16.06 18.6099C16.9683 17.9962 17.6911 17.1454 18.15 16.1499L23.67 18.5199Z" fill="#212121"/>
<path fill-rule="evenodd" clip-rule="evenodd" d="M44.2399 23.3C45.9894 22.1831 47.4357 20.651 48.4499 18.84L43.4499 16.34C42.9329 17.2846 42.1995 18.0933 41.3099 18.7C40.298 19.381 39.0993 19.7305 37.8799 19.7C37.1823 19.7006 36.4883 19.5995 35.8199 19.4C35.1374 19.1916 34.5022 18.8519 33.9499 18.4C33.3748 17.9465 32.8926 17.3863 32.5299 16.75C32.1185 16.0197 31.8599 15.2134 31.7699 14.38H48.7699C48.7707 14.2088 48.7874 14.0381 48.8199 13.87C48.8066 13.7036 48.8066 13.5364 48.8199 13.37V12.82C48.8333 11.2266 48.5833 9.64188 48.0799 8.13C47.6223 6.74615 46.8873 5.47016 45.9199 4.38C44.941 3.29812 43.7311 2.4505 42.3799 1.9C40.8473 1.27663 39.2042 0.970465 37.5499 0.999997C35.926 0.988237 34.3189 1.32944 32.8399 2C30.0245 3.22957 27.81 5.52319 26.6799 8.38C26.0979 9.85043 25.8026 11.4186 25.8099 13C25.7913 14.6427 26.0936 16.2732 26.6999 17.8C27.2749 19.2213 28.1283 20.5133 29.2099 21.6C30.2925 22.6794 31.5815 23.5297 32.9999 24.1C34.5183 24.7124 36.1428 25.0182 37.7799 25C40.0526 25.0726 42.2973 24.4819 44.2399 23.3ZM42.6099 8.77C42.8181 9.18657 42.9501 9.63698 42.9999 10.1H32.0799C32.4161 8.86982 33.1425 7.78198 34.1499 7C35.142 6.26999 36.3485 5.89012 37.5799 5.92C38.389 5.90193 39.1939 6.04118 39.9499 6.33C40.5631 6.57938 41.1257 6.9386 41.6099 7.39C42.023 7.78652 42.3617 8.25392 42.6099 8.77Z" fill="#212121"/>
<path d="M61.8302 25C60.4996 25.0218 59.1737 24.8362 57.9002 24.45C56.8312 24.1248 55.8191 23.6357 54.9002 23C54.0812 22.4284 53.3588 21.7296 52.7602 20.93C52.2082 20.2062 51.7605 19.4084 51.4302 18.56L56.8102 16.26C57.232 17.3157 57.9598 18.2212 58.9002 18.86C59.7671 19.428 60.7839 19.724 61.8202 19.71C62.7319 19.7529 63.638 19.5454 64.4402 19.11C65.0113 18.8591 65.3963 18.3123 65.4402 17.6901C65.449 17.0885 65.1465 16.525 64.6402 16.2C63.7813 15.702 62.8395 15.3632 61.8602 15.2L58.6902 14.51C57.9371 14.3425 57.2032 14.0978 56.5002 13.78C55.7769 13.4448 55.1038 13.0107 54.5002 12.49C53.8777 11.9627 53.3617 11.3212 52.9802 10.6C52.5365 9.80559 52.3057 8.90997 52.3102 8.00005C52.284 6.97388 52.5216 5.95817 53.0002 5.05005C53.4951 4.18001 54.1785 3.43173 55.0002 2.86005C55.8782 2.23322 56.8599 1.76607 57.9002 1.48005C59.0752 1.15237 60.2903 0.990798 61.5102 1.00005C63.4958 0.96476 65.4619 1.39635 67.2502 2.26005C68.9339 3.10169 70.2581 4.52171 70.9802 6.26005L65.7802 8.40005C65.3956 7.55867 64.7312 6.87662 63.9002 6.47005C63.1266 6.08341 62.275 5.87822 61.4102 5.87005C60.6275 5.85451 59.8536 6.03681 59.1602 6.40005C58.5892 6.6183 58.1983 7.14994 58.1602 7.76005C58.172 8.30259 58.5007 8.78783 59.0002 9.00005C59.6896 9.36606 60.4219 9.64487 61.1802 9.83005L64.6302 10.66C66.5624 11.0169 68.3467 11.9352 69.7602 13.3C70.861 14.4585 71.4641 16.0022 71.4402 17.6C71.4412 18.5756 71.2044 19.5367 70.7502 20.4C70.2574 21.3218 69.5759 22.1293 68.7502 22.7701C67.8563 23.4894 66.8401 24.0415 65.7502 24.4C64.485 24.8127 63.1608 25.0154 61.8302 25Z" fill="#212121"/>
<path d="M95.7101 25C94.3795 25.0218 93.0536 24.8362 91.7801 24.45C90.7119 24.1227 89.7002 23.6337 88.7801 23C87.9662 22.4256 87.2475 21.7271 86.6501 20.93C86.0951 20.2064 85.644 19.4086 85.3101 18.56L90.6901 16.26C91.1155 17.3136 91.8426 18.218 92.7801 18.86C93.6482 19.4252 94.6642 19.721 95.7001 19.71C96.6122 19.7576 97.5195 19.5498 98.3201 19.11C98.8912 18.8591 99.2762 18.3123 99.3201 17.69C99.3248 17.087 99.0188 16.5239 98.5101 16.2C97.6521 15.7001 96.7099 15.3612 95.7301 15.2L92.5601 14.51C91.8102 14.3423 91.0797 14.0977 90.3801 13.78C89.6559 13.4464 88.9826 13.0121 88.3801 12.49C87.7603 11.96 87.2448 11.319 86.8601 10.6C86.4164 9.80556 86.1856 8.90994 86.1901 8.00002C86.1694 6.97398 86.4176 5.96039 86.9101 5.06002C87.4011 4.18712 88.0852 3.43804 88.9101 2.87002C89.7794 2.24455 90.7504 1.77428 91.7801 1.48002C92.9551 1.15233 94.1702 0.990766 95.3901 1.00002C97.3788 0.965024 99.3482 1.39656 101.14 2.26002C102.819 3.10501 104.139 4.52434 104.86 6.26002L99.6701 8.40002C99.2829 7.55698 98.6148 6.87472 97.7801 6.47002C97.01 6.08353 96.1617 5.8783 95.3001 5.87002C94.5173 5.85317 93.743 6.03555 93.0501 6.40002C92.4775 6.61616 92.0856 7.14901 92.0501 7.76002C92.0651 8.29863 92.3878 8.78085 92.8801 9.00002C93.5731 9.36586 94.3087 9.64464 95.0701 9.83002L98.5201 10.66C100.45 11.0148 102.232 11.9334 103.64 13.3C104.741 14.4585 105.344 16.0021 105.32 17.6C105.321 18.5756 105.084 19.5367 104.63 20.4C104.149 21.3153 103.486 22.1221 102.68 22.77C101.784 23.4865 100.769 24.0383 99.6801 24.4C98.399 24.8181 97.0575 25.0208 95.7101 25Z" fill="#212121"/>
<path d="M75.25 25V9.73999H81.25V25H75.25Z" fill="#212121"/>
<path d="M75.25 1H81.28V7.02" fill="#212121"/>
</svg>