<svg width="133" height="34" viewBox="0 0 133 34" fill="none" xmlns="http://www.w3.org/2000/svg">
<path fill-rule="evenodd" clip-rule="evenodd" d="M17.3095 19.104C18.5682 17.76 19.1975 15.9787 19.1975 13.76C19.1975 11.5413 18.5682 9.77067 17.3095 8.448C16.0508 7.12533 14.4082 6.464 12.3815 6.464C10.3548 6.464 8.70686 7.13066 7.43752 8.464C6.16818 9.79734 5.53352 11.568 5.53352 13.776C5.53352 15.984 6.16818 17.7547 7.43752 19.088C8.70686 20.4213 10.3548 21.088 12.3815 21.088C14.4082 21.088 16.0508 20.4267 17.3095 19.104ZM12.3815 25.216C9.16017 25.216 6.45086 24.1387 4.25352 21.984C2.05618 19.8293 0.95752 17.0933 0.95752 13.776C0.95752 10.4586 2.06151 7.72268 4.26952 5.568C6.47753 3.41332 9.18684 2.336 12.3975 2.336C15.6082 2.336 18.3122 3.41332 20.5095 5.568C22.7069 7.72268 23.8055 10.4586 23.8055 13.776C23.8055 17.0933 22.7069 19.8293 20.5095 21.984C18.3122 24.1387 15.6029 25.216 12.3815 25.216ZM31.8695 7.264V10.4C33.0642 8.13865 34.7922 7.008 37.0535 7.008V11.616H35.9335C34.5895 11.616 33.5762 11.952 32.8935 12.624C32.2108 13.296 31.8695 14.4533 31.8695 16.096V24.992H27.3575V7.264H31.8695ZM45.2455 2.752C45.2455 3.52 44.9789 4.17066 44.4455 4.704C43.9122 5.23734 43.2669 5.504 42.5095 5.504C41.7522 5.504 41.1069 5.23734 40.5735 4.704C40.0402 4.17066 39.7735 3.52 39.7735 2.752C39.7735 1.984 40.0402 1.33334 40.5735 0.8C41.1069 0.266664 41.7522 0 42.5095 0C43.2669 0 43.9122 0.266664 44.4455 0.8C44.9789 1.33334 45.2455 1.984 45.2455 2.752ZM40.2535 24.992V7.264H44.7655V24.992H40.2535ZM50.6855 22.688C49.1068 20.96 48.3175 18.7627 48.3175 16.096C48.3175 13.4293 49.1068 11.248 50.6855 9.552C52.2642 7.85599 54.2695 7.008 56.7015 7.008C59.1335 7.008 60.9895 8.01066 62.2695 10.016V7.264H66.7495V25.12C66.7495 27.6587 66.0029 29.7333 64.5095 31.344C63.0162 32.9547 60.9202 33.76 58.2215 33.76C55.5228 33.76 53.3789 33.2 51.7895 32.08C50.2002 30.96 49.2989 29.3653 49.0855 27.296H53.5015C53.7789 28.0853 54.3122 28.7093 55.1015 29.168C55.8909 29.6267 56.8828 29.856 58.0775 29.856C59.2722 29.856 60.2695 29.4613 61.0695 28.672C61.8695 27.8827 62.2695 26.6987 62.2695 25.12V22.016C60.9255 24.1707 59.0589 25.248 56.6695 25.248C54.2802 25.248 52.2855 24.3947 50.6855 22.688ZM60.8615 19.968C61.8002 19.0293 62.2695 17.7493 62.2695 16.128C62.2695 14.5067 61.8002 13.232 60.8615 12.304C59.9228 11.376 58.8242 10.912 57.5655 10.912C56.3068 10.912 55.2135 11.3707 54.2855 12.288C53.3575 13.2053 52.8935 14.4747 52.8935 16.096C52.8935 17.7173 53.3629 18.9973 54.3015 19.936C55.2402 20.8747 56.3335 21.344 57.5815 21.344C58.8295 21.344 59.9228 20.8853 60.8615 19.968ZM82.8455 19.968C83.7842 19.0293 84.2535 17.7493 84.2535 16.128C84.2535 14.5067 83.7842 13.232 82.8455 12.304C81.9068 11.376 80.8082 10.912 79.5495 10.912C78.2908 10.912 77.1975 11.3707 76.2695 12.288C75.3415 13.2053 74.8775 14.4747 74.8775 16.096C74.8775 17.7173 75.3468 18.9973 76.2855 19.936C77.2242 20.8747 78.3175 21.344 79.5655 21.344C80.8135 21.344 81.9068 20.8853 82.8455 19.968ZM72.6695 22.688C71.0908 20.96 70.3015 18.7627 70.3015 16.096C70.3015 13.4293 71.0908 11.248 72.6695 9.552C74.2482 7.85599 76.2535 7.008 78.6855 7.008C81.1175 7.008 82.9735 8.01066 84.2535 10.016V7.264H88.7335V24.992H84.2535V22.016C82.9095 24.1707 81.0429 25.248 78.6535 25.248C76.2642 25.248 74.2695 24.3947 72.6695 22.688ZM98.0455 7.264V9.92C99.1762 7.97866 101.011 7.008 103.55 7.008C104.894 7.008 106.094 7.31733 107.15 7.936C108.206 8.55467 109.022 9.43999 109.598 10.592C110.216 9.48266 111.064 8.608 112.142 7.968C113.219 7.328 114.43 7.008 115.774 7.008C117.886 7.008 119.587 7.66933 120.878 8.992C122.168 10.3147 122.814 12.1707 122.814 14.56V24.992H118.334V15.2C118.334 13.8133 117.982 12.752 117.278 12.016C116.574 11.28 115.614 10.912 114.398 10.912C113.182 10.912 112.216 11.28 111.502 12.016C110.787 12.752 110.43 13.8133 110.43 15.2V24.992H105.95V15.2C105.95 13.8133 105.598 12.752 104.894 12.016C104.19 11.28 103.23 10.912 102.014 10.912C100.798 10.912 99.8322 11.28 99.1175 12.016C98.4028 12.752 98.0455 13.8133 98.0455 15.2V24.992H93.5335V7.264H98.0455ZM132.446 2.752C132.446 3.52 132.179 4.17066 131.646 4.704C131.112 5.23734 130.467 5.504 129.71 5.504C128.952 5.504 128.307 5.23734 127.774 4.704C127.24 4.17066 126.974 3.52 126.974 2.752C126.974 1.984 127.24 1.33334 127.774 0.8C128.307 0.266664 128.952 0 129.71 0C130.467 0 131.112 0.266664 131.646 0.8C132.179 1.33334 132.446 1.984 132.446 2.752ZM127.454 24.992V7.264H131.966V24.992H127.454Z" fill="#181C27"/>
</svg>