<svg width="118" height="30" viewBox="0 0 118 30" fill="none" xmlns="http://www.w3.org/2000/svg">
<path fill-rule="evenodd" clip-rule="evenodd" d="M8.23285 30C6.63884 30 5.41346 29.5536 4.55667 28.6609C3.69989 27.7682 3.27151 26.4824 3.27151 24.8035V12.4117H0.840649C0.628114 12.4117 0.44879 12.3484 0.302672 12.2219C0.156554 12.0953 0.0834961 11.8987 0.0834961 11.6322V10.2132L3.39106 9.79347L4.20799 3.53764C4.23455 3.33777 4.32089 3.17455 4.46701 3.04797C4.61313 2.92139 4.79909 2.85809 5.02491 2.85809H6.81817V9.83344H12.5964V12.4117H6.81817V24.5636C6.81817 25.4164 7.02406 26.0493 7.43585 26.4624C7.84763 26.8754 8.37896 27.0819 9.02985 27.0819C9.40179 27.0819 9.72391 27.032 9.99622 26.932C10.2685 26.8321 10.5043 26.7222 10.7036 26.6023C10.9028 26.4823 11.0722 26.3724 11.2116 26.2725C11.3511 26.1726 11.474 26.1226 11.5803 26.1226C11.7662 26.1226 11.9323 26.2358 12.0784 26.4624L13.1145 28.1612C12.5035 28.7342 11.7662 29.1839 10.9028 29.5103C10.0394 29.8368 9.14941 30 8.23285 30ZM16.98 29.6802V0.23984H20.5266V12.1519C21.39 11.2325 22.3464 10.4963 23.3958 9.94337C24.4452 9.3904 25.654 9.11392 27.0222 9.11392C28.1247 9.11392 29.0977 9.29713 29.9412 9.66356C30.7847 10.03 31.4887 10.5496 32.0533 11.2225C32.6178 11.8954 33.0462 12.7049 33.3384 13.6509C33.6307 14.5969 33.7768 15.6429 33.7768 16.7888V29.6802H30.2301V16.7888C30.2301 15.2565 29.8814 14.0673 29.1841 13.2212C28.4867 12.3751 27.4207 11.952 25.9861 11.952C24.9367 11.952 23.9571 12.2052 23.0471 12.7115C22.1372 13.2179 21.2971 13.9041 20.5266 14.7702V29.6802H16.98ZM47.1266 9.11392C48.3354 9.11392 49.4512 9.31712 50.474 9.72352C51.4968 10.1299 52.3802 10.7162 53.124 11.4823C53.8679 12.2485 54.449 13.1945 54.8675 14.3205C55.2859 15.4464 55.4951 16.7288 55.4951 18.1679C55.4951 18.7275 55.4353 19.1006 55.3158 19.2871C55.1962 19.4737 54.9704 19.567 54.6383 19.567H41.2088C41.2354 20.8461 41.4081 21.9587 41.7269 22.9047C42.0457 23.8508 42.484 24.6402 43.0419 25.2732C43.5998 25.9061 44.264 26.3791 45.0345 26.6922C45.8049 27.0053 46.6683 27.1619 47.6247 27.1619C48.5147 27.1619 49.2818 27.0586 49.9261 26.8521C50.5703 26.6456 51.1249 26.4224 51.5898 26.1825C52.0547 25.9427 52.4433 25.7195 52.7554 25.513C53.0676 25.3065 53.3366 25.2032 53.5624 25.2032C53.8546 25.2032 54.0804 25.3165 54.2398 25.543L55.2361 26.8421C54.7977 27.3751 54.273 27.8381 53.662 28.2312C53.051 28.6243 52.3968 28.9474 51.6994 29.2005C51.002 29.4537 50.2814 29.6436 49.5375 29.7702C48.7936 29.8967 48.0564 29.96 47.3258 29.96C45.9311 29.96 44.6459 29.7235 43.4703 29.2505C42.2948 28.7775 41.2786 28.0846 40.4218 27.1719C39.565 26.2592 38.8975 25.1299 38.4193 23.7841C37.9411 22.4384 37.702 20.8927 37.702 19.1472C37.702 17.7348 37.9179 16.4157 38.3496 15.1899C38.7813 13.964 39.4023 12.9014 40.2126 12.002C41.0229 11.1026 42.0125 10.3964 43.1814 9.88341C44.3504 9.37042 45.6654 9.11392 47.1266 9.11392ZM47.2063 11.7322C45.4927 11.7322 44.1445 12.2285 43.1615 13.2212C42.1785 14.2139 41.5675 15.5896 41.3284 17.3484H52.3071C52.3071 16.5223 52.1942 15.7662 51.9684 15.0799C51.7426 14.3937 51.4105 13.8008 50.9721 13.3011C50.5338 12.8015 49.9991 12.4151 49.3682 12.1419C48.7372 11.8688 48.0166 11.7322 47.2063 11.7322ZM60.4166 29.6802V13.2112L59.0617 12.9314C58.5968 12.8248 58.2215 12.6582 57.9359 12.4317C57.6503 12.2052 57.5075 11.8721 57.5075 11.4324V8.994H60.4166V7.81479C60.4166 6.62891 60.6059 5.5563 60.9845 4.59694C61.363 3.63757 61.9077 2.81812 62.6183 2.13857C63.329 1.45902 64.1957 0.932713 65.2185 0.559627C66.2414 0.18654 67.4037 0 68.7054 0C69.2102 0 69.6784 0.0299797 70.1101 0.08994C70.5419 0.1499 70.9902 0.246502 71.4551 0.379747L71.3355 3.39773C71.3223 3.61093 71.2658 3.78747 71.1662 3.92738C71.0666 4.06729 70.9437 4.18055 70.7976 4.26716C70.6514 4.35376 70.4887 4.41706 70.3094 4.45703C70.1301 4.497 69.9541 4.51699 69.7814 4.51699C69.2368 4.51699 68.7519 4.57029 68.3269 4.67688C67.9018 4.78348 67.5465 4.97335 67.2609 5.2465C66.9753 5.51966 66.7594 5.87941 66.6133 6.32578C66.4672 6.77215 66.3941 7.33511 66.3941 8.01466V8.994H71.2558V13.2312H66.5934V29.6802H60.4166ZM83.1312 8.63424C84.6986 8.63424 86.1266 8.88074 87.4151 9.37375C88.7036 9.86676 89.8094 10.5729 90.7326 11.4923C91.6558 12.4117 92.3731 13.5276 92.8845 14.8401C93.3959 16.1526 93.6516 17.6282 93.6516 19.2672C93.6516 20.9194 93.3959 22.4084 92.8845 23.7342C92.3731 25.06 91.6558 26.1859 90.7326 27.1119C89.8094 28.038 88.7036 28.7508 87.4151 29.2505C86.1266 29.7502 84.6986 30 83.1312 30C81.5505 30 80.1125 29.7502 78.8174 29.2505C77.5223 28.7508 76.4065 28.038 75.47 27.1119C74.5335 26.1859 73.8096 25.06 73.2982 23.7342C72.7867 22.4084 72.531 20.9194 72.531 19.2672C72.531 17.6282 72.7867 16.1526 73.2982 14.8401C73.8096 13.5276 74.5335 12.4117 75.47 11.4923C76.4065 10.5729 77.5223 9.86676 78.8174 9.37375C80.1125 8.88074 81.5505 8.63424 83.1312 8.63424ZM83.1312 25.4031C84.5525 25.4031 85.5986 24.9001 86.2694 23.8941C86.9402 22.8881 87.2756 21.3591 87.2756 19.3071C87.2756 17.2552 86.9402 15.7295 86.2694 14.7302C85.5986 13.7308 84.5525 13.2312 83.1312 13.2312C81.67 13.2312 80.6007 13.7308 79.9232 14.7302C79.2458 15.7295 78.9071 17.2552 78.9071 19.3071C78.9071 21.3591 79.2458 22.8881 79.9232 23.8941C80.6007 24.9001 81.67 25.4031 83.1312 25.4031ZM101.98 18.9674L95.3253 8.95403H101.263C101.701 8.95403 102.023 9.01066 102.229 9.12392C102.435 9.23718 102.618 9.42705 102.777 9.69354L106.463 15.8294C106.543 15.5896 106.643 15.3564 106.762 15.1299C106.882 14.9034 107.015 14.6636 107.161 14.4104L109.791 9.79347C109.964 9.48701 110.156 9.27049 110.369 9.1439C110.581 9.01732 110.84 8.95403 111.146 8.95403H116.805L110.15 18.6875L117.083 29.6802H111.146C110.707 29.6802 110.355 29.5736 110.09 29.3604C109.824 29.1472 109.605 28.8941 109.432 28.6009L105.746 22.2452C105.68 22.4717 105.6 22.6849 105.507 22.8847C105.414 23.0846 105.314 23.2712 105.208 23.4444L102.18 28.6009C102.02 28.8807 101.808 29.1306 101.542 29.3504C101.276 29.5703 100.944 29.6802 100.546 29.6802H95.0464L101.98 18.9674Z" fill="#181C27"/>
</svg>