<svg width="141" height="24" viewBox="0 0 141 24" fill="none" xmlns="http://www.w3.org/2000/svg">
<path fill-rule="evenodd" clip-rule="evenodd" d="M17.2934 23.68L15.8534 19.488H7.14941L5.70941 23.68H0.941406L8.84541 1.28H14.1894L22.0614 23.68H17.2934ZM8.33341 16.032H14.7014L11.5014 6.72L8.33341 16.032ZM37.6454 18.624C38.5841 17.6853 39.0534 16.4053 39.0534 14.784C39.0534 13.1627 38.5894 11.8933 37.6614 10.976C36.7334 10.0587 35.6401 9.6 34.3814 9.6C33.1227 9.6 32.0294 10.064 31.1014 10.992C30.1734 11.92 29.7094 13.1947 29.7094 14.816C29.7094 16.4373 30.1734 17.712 31.1014 18.64C32.0294 19.568 33.1227 20.032 34.3814 20.032C35.6401 20.032 36.7281 19.5627 37.6454 18.624ZM29.7094 8.704C30.9681 6.69866 32.8134 5.696 35.2454 5.696C37.6774 5.696 39.6827 6.54399 41.2614 8.24C42.8401 9.93601 43.6294 12.1227 43.6294 14.8C43.6294 17.4773 42.8401 19.6693 41.2614 21.376C39.6827 23.0827 37.6934 23.936 35.2934 23.936C32.8934 23.936 31.0321 22.8587 29.7094 20.704V23.68H25.1974V0H29.7094V8.704ZM46.1894 11.136C46.1894 9.59999 46.8401 8.30934 48.1414 7.264C49.4427 6.21866 51.1707 5.696 53.3254 5.696C55.4801 5.696 57.2081 6.21333 58.5094 7.248C59.8107 8.28267 60.5041 9.68532 60.5894 11.456H55.9814C55.8534 9.96266 54.9361 9.216 53.2294 9.216C52.3761 9.216 51.7147 9.38667 51.2454 9.728C50.7761 10.0693 50.5414 10.5387 50.5414 11.136C50.5414 11.7333 50.8934 12.2027 51.5974 12.544C52.3014 12.8853 53.1547 13.152 54.1574 13.344C55.1601 13.536 56.1574 13.776 57.1494 14.064C58.1414 14.352 58.9894 14.864 59.6934 15.6C60.3974 16.336 60.7494 17.312 60.7494 18.528C60.7494 20.128 60.0721 21.4293 58.7174 22.432C57.3627 23.4347 55.6348 23.936 53.5334 23.936C51.4321 23.936 49.7094 23.44 48.3654 22.448C47.0214 21.456 46.2854 20.032 46.1574 18.176H50.7654C50.9361 19.6693 51.8854 20.416 53.6134 20.416C54.4454 20.416 55.1174 20.2293 55.6294 19.856C56.1414 19.4827 56.3974 18.992 56.3974 18.384C56.3974 17.776 56.0454 17.296 55.3414 16.944C54.6374 16.592 53.7841 16.32 52.7814 16.128C51.7787 15.936 50.7814 15.7013 49.7894 15.424C48.7974 15.1467 47.9494 14.6507 47.2454 13.936C46.5414 13.2213 46.1894 12.288 46.1894 11.136ZM71.4694 19.904H73.6134V23.68H70.7654C68.9521 23.68 67.5547 23.264 66.5734 22.432C65.5921 21.6 65.1014 20.224 65.1014 18.304V9.632H63.2134V5.952H65.1014V1.568H69.6134V5.952H73.5814V9.632H69.6134V18.304C69.6134 18.88 69.7521 19.2907 70.0294 19.536C70.3067 19.7813 70.7867 19.904 71.4694 19.904ZM81.6454 5.952V9.088C82.8401 6.82666 84.5681 5.696 86.8294 5.696V10.304H85.7094C84.3654 10.304 83.3521 10.64 82.6694 11.312C81.9867 11.984 81.6454 13.1413 81.6454 14.784V23.68H77.1334V5.952H81.6454ZM101.325 18.656C102.264 17.7173 102.733 16.4373 102.733 14.816C102.733 13.1947 102.264 11.92 101.325 10.992C100.387 10.064 99.2881 9.6 98.0294 9.6C96.7707 9.6 95.6774 10.0587 94.7494 10.976C93.8214 11.8933 93.3574 13.1627 93.3574 14.784C93.3574 16.4053 93.8267 17.6853 94.7654 18.624C95.7041 19.5627 96.7974 20.032 98.0454 20.032C99.2934 20.032 100.387 19.5733 101.325 18.656ZM91.1494 21.376C89.5707 19.648 88.7814 17.4507 88.7814 14.784C88.7814 12.1173 89.5707 9.93601 91.1494 8.24C92.7281 6.54399 94.7334 5.696 97.1654 5.696C99.5974 5.696 101.453 6.69866 102.733 8.704V5.952H107.213V23.68H102.733V20.704C101.389 22.8587 99.5228 23.936 97.1334 23.936C94.7441 23.936 92.7494 23.0827 91.1494 21.376ZM113.197 21.44C111.576 19.776 110.765 17.568 110.765 14.816C110.765 12.064 111.576 9.85601 113.197 8.192C114.819 6.52799 116.92 5.696 119.501 5.696C121.656 5.696 123.459 6.21866 124.909 7.264C126.36 8.30934 127.331 9.79199 127.821 11.712H122.957C122.381 10.24 121.229 9.504 119.501 9.504C118.2 9.504 117.181 9.97866 116.445 10.928C115.709 11.8773 115.341 13.1733 115.341 14.816C115.341 16.4587 115.709 17.7547 116.445 18.704C117.181 19.6533 118.2 20.128 119.501 20.128C121.208 20.128 122.36 19.3813 122.957 17.888H127.821C127.309 19.744 126.323 21.216 124.861 22.304C123.4 23.392 121.613 23.936 119.501 23.936C116.92 23.936 114.819 23.104 113.197 21.44ZM138.093 19.904H140.237V23.68H137.389C135.576 23.68 134.179 23.264 133.197 22.432C132.216 21.6 131.725 20.224 131.725 18.304V9.632H129.837V5.952H131.725V1.568H136.237V5.952H140.205V9.632H136.237V18.304C136.237 18.88 136.376 19.2907 136.653 19.536C136.931 19.7813 137.411 19.904 138.093 19.904Z" fill="#181C27"/>
</svg>